#!OML:ASF F:\VICON\USERDATA\INSTALL\rory3\rory3.ASF
:FULLY-SPECIFIED
:DEGREES
664
root 4.8527 16.0954 -8.62849 29.7889 -44.6608 -4.59809
lowerback -1.61862 -1.19114 -2.66758
upperback -16.9901 -2.05794 3.08693
thorax -18.1443 -0.456824 5.40382
lowerneck -5.32637 0.697731 -4.36709
upperneck 19.198 -0.49932 9.59047
head 6.7073 0.129582 3.79194
rclavicle -9.40748e-014 -3.61788e-014
rhumerus -49.0206 -25.4438 -15.2828
rradius 31.3968
rwrist -4.50297
rhand -21.1278 26.1512
rfingers 7.12502
rthumb 5.25091 -3.76373
lclavicle -9.40748e-014 -3.61788e-014
lhumerus 8.12452 12.985 27.66
lradius 80.6229
lwrist -26.0379
lhand -34.2633 9.24637
lfingers 7.12502
lthumb -7.43368 39.0958
rfemur 149.134 -188.812 -147.903
rtibia 35.2173
rfoot -45.4136 -37.1181
rtoes 13.8612
lfemur -100.478 27.7166 -55.3684
ltibia 60.3807
lfoot 31.9563 35.2122
ltoes 20.7345
665
root 4.8508 16.1111 -8.61915 29.6049 -44.7515 -4.45292
lowerback -1.62155 -1.2945 -2.62069
upperback -16.84 -2.17728 3.1822
thorax -17.9184 -0.519396 5.49052
lowerneck -5.74978 0.718872 -4.39495
upperneck 19.3645 -0.453421 9.52034
head 6.83322 0.157059 3.78498
rclavicle -2.32081e-014 9.93923e-015
rhumerus -48.9574 -25.4143 -16.4715
rradius 31.0827
rwrist -4.57195
rhand -20.6505 26.1012
rfingers 7.12502
rthumb 5.71183 -3.80183
lclavicle -2.32081e-014 9.93923e-015
lhumerus 4.80079 12.3763 28.2975
lradius 80.7585
lwrist -25.4386
lhand -34.6733 8.7923
lfingers 7.12502
lthumb -7.8295 38.6273
rfemur 149.432 -189.499 -148.313
rtibia 35.2545
rfoot -48.9373 -33.5961
rtoes 21.9534
lfemur -100.215 27.6828 -55.6472
ltibia 60.4377
lfoot 30.2936 35.7888
ltoes 21.897
666
root 4.8471 16.1088 -8.60564 29.6257 -44.8186 -4.53536
lowerback -1.61453 -1.23448 -2.44516
upperback -16.6879 -2.07421 3.13432
thorax -17.7301 -0.508176 5.31092
lowerneck -6.09302 0.558361 -4.16272
upperneck 19.5902 -0.671529 9.28318
head 6.98566 0.0600544 3.65954
rclavicle -5.91633e-014 4.17448e-014
rhumerus -49.4865 -25.6307 -17.4224
rradius 30.8047
rwrist -4.18394
rhand -20.5593 25.436
rfingers 7.12502
rthumb 5.79981 -4.4646
lclavicle -5.91633e-014 4.17448e-014
lhumerus 2.05474 11.7961 29.3744
lradius 80.9373
lwrist -25.2779
lhand -34.0155 8.96809
lfingers 7.12502
lthumb -7.19457 38.8258
rfemur 149.567 -189.636 -148.351
rtibia 35.2985
rfoot -49.5983 -32.6078
rtoes 23.5961
lfemur -100.193 27.659 -55.8179
ltibia 60.559
lfoot 29.4054 35.6324
ltoes 21.4659
667
root 4.84556 16.0963 -8.60331 29.7837 -44.829 -4.82214
lowerback -1.45437 -1.13627 -2.14186
upperback -16.5546 -1.91376 3.05664
thorax -17.6796 -0.484729 5.02889
lowerneck -5.91578 0.37686 -3.93698
upperneck 19.7887 -0.893466 8.84568
head 7.035 -0.0701997 3.4627
rclavicle 1.23495e-014 3.97569e-015
rhumerus -50.3586 -26.4467 -17.9315
rradius 30.3749
rwrist -3.30816
rhand -20.1655 25.2752
rfingers 7.12502
rthumb 6.18003 -4.61463
lclavicle 1.23495e-014 3.97569e-015
lhumerus -0.225004 11.5106 30.6407
lradius 80.9624
lwrist -25.7275
lhand -32.479 9.43205
lfingers 7.12502
lthumb -5.71125 39.3351
rfemur 149.583 -190.238 -148.233
rtibia 35.448
rfoot -49.9872 -32.7556
rtoes 23.5262
lfemur -100.183 27.6053 -55.7065
ltibia 60.6458
lfoot 27.4883 36.3
ltoes 22.5169
668
root 4.84538 16.082 -8.6066 29.8101 -44.924 -4.90571
lowerback -1.29842 -1.17699 -2.02423
upperback -16.3965 -1.95198 3.06285
thorax -17.5662 -0.522106 4.97089
lowerneck -6.34891 0.362595 -3.69314
upperneck 20.0735 -0.915175 8.62277
head 7.20731 -0.0684013 3.3549
rclavicle -1.68967e-014 1.11319e-014
rhumerus -50.6942 -27.2387 -18.8006
rradius 29.7597
rwrist -2.17411
rhand -19.9217 25.103
rfingers 7.12502
rthumb 6.41537 -4.77984
lclavicle -1.68967e-014 1.11319e-014
lhumerus -2.57475 11.4419 31.6021
lradius 80.6761
lwrist -25.7259
lhand -30.9353 9.24059
lfingers 7.12502
lthumb -4.22062 39.1785
rfemur 149.564 -190.707 -148.217
rtibia 35.5307
rfoot -50.6936 -32.7163
rtoes 23.9815
lfemur -100.171 27.5297 -55.7765
ltibia 60.7431
lfoot 25.8518 36.8131
ltoes 23.1396
669
root 4.83615 16.0648 -8.59274 29.9284 -45.1096 -5.11883
lowerback -1.35627 -1.17098 -1.91007
upperback -16.1986 -1.914 3.13916
thorax -17.2638 -0.522799 4.97116
lowerneck -6.76063 0.383075 -3.56918
upperneck 20.3627 -0.885858 8.46572
head 7.3742 -0.0461241 3.29328
rclavicle -1.40392e-014 -2.54444e-014
rhumerus -50.75 -27.6729 -19.856
rradius 28.9809
rwrist -1.01833
rhand -20.1461 24.9012
rfingers 7.12502
rthumb 6.19878 -4.98813
lclavicle -1.40392e-014 -2.54444e-014
lhumerus -4.91469 11.2392 32.6641
lradius 80.3152
lwrist -24.9101
lhand -29.2631 8.84518
lfingers 7.12502
lthumb -2.60584 38.809
rfemur 149.63 -190.661 -148.047
rtibia 35.5538
rfoot -50.4426 -33.3019
rtoes 22.3499
lfemur -100.267 27.6305 -55.8813
ltibia 60.9217
lfoot 24.4662 36.9289
ltoes 22.9762
670
root 4.82533 16.0509 -8.56973 30.2441 -45.0952 -5.58236
lowerback -1.48935 -1.09121 -1.53286
upperback -15.9711 -1.75403 3.18389
thorax -16.8911 -0.507367 4.76657
lowerneck -7.12218 0.252852 -3.43052
upperneck 20.4524 -1.06223 8.34994
head 7.48129 -0.120325 3.22122
rclavicle 4.33599e-014 -5.36719e-015
rhumerus -51.0109 -28.0703 -20.755
rradius 28.1327
rwrist -0.229767
rhand -20.3649 24.4759
rfingers 7.12502
rthumb 5.98757 -5.41949
lclavicle 4.33599e-014 -5.36719e-015
lhumerus -6.91915 10.9717 33.9495
lradius 79.7696
lwrist -23.706
lhand -27.5022 8.66307
lfingers 7.12502
lthumb -0.905166 38.6409
rfemur 149.754 -190.226 -147.615
rtibia 35.5932
rfoot -49.7386 -33.7697
rtoes 20.0913
lfemur -100.354 27.6974 -55.8338
ltibia 61.0786
lfoot 23.2801 36.5821
ltoes 21.8834
671
root 4.8245 16.051 -8.5486 30.3537 -44.5288 -5.79281
lowerback -1.46313 -1.07554 -0.86956
upperback -15.8123 -1.67213 3.14492
thorax -16.7149 -0.568344 4.32997
lowerneck -7.04727 0.0437281 -3.54688
upperneck 20.4238 -1.30461 8.20436
head 7.47427 -0.259457 3.17157
rclavicle 6.76116e-014 2.56432e-014
rhumerus -51.5969 -28.5934 -21.2464
rradius 27.277
rwrist 0.457021
rhand -20.581 24.0873
rfingers 7.12502
rthumb 5.77893 -5.81385
lclavicle 6.76116e-014 2.56432e-014
lhumerus -8.72545 10.6857 35.4816
lradius 78.7154
lwrist -22.8049
lhand -25.7263 8.77898
lfingers 7.12502
lthumb 0.810133 38.7572
rfemur 149.878 -188.733 -147.095
rtibia 35.594
rfoot -49.0984 -33.236
rtoes 19.0639
lfemur -99.9445 27.2593 -55.5807
ltibia 61.2287
lfoot 21.7029 36.5225
ltoes 22.3329
672
root 4.81179 16.0494 -8.53857 30.0645 -45.4616 -5.38508
lowerback -1.42605 -0.763794 -1.62866
upperback -15.6794 -1.30854 2.99118
thorax -16.5915 -0.303428 4.52574
lowerneck -7.18277 -0.190839 -3.87064
upperneck 20.333 -1.59545 8.33013
head 7.49028 -0.408743 3.24352
rclavicle 3.39673e-014 -9.34288e-015
rhumerus -52.1159 -29.0235 -21.6812
rradius 26.3797
rwrist 1.21203
rhand -20.7542 23.9325
rfingers 7.12502
rthumb 5.61166 -5.97319
lclavicle 3.39673e-014 -9.34288e-015
lhumerus -10.9918 10.6487 37.1424
lradius 77.2529
lwrist -22.4861
lhand -24.4632 7.92036
lfingers 7.12502
lthumb 2.02999 37.8904
rfemur 149.925 -190.049 -147.902
rtibia 35.6359
rfoot -50.0645 -32.9466
rtoes 21.1473
lfemur -99.9596 27.6816 -56.4448
ltibia 61.1994
lfoot 19.8723 36.8894
ltoes 23.2155
673
root 4.80996 16.0365 -8.52205 30.2957 -45.3479 -5.77437
lowerback -1.37795 -0.668664 -1.2117
upperback -15.5361 -1.12309 3.09859
thorax -16.4532 -0.26412 4.38482
lowerneck -7.25634 -0.293051 -4.06979
upperneck 20.3556 -1.67304 8.17766
head 7.51656 -0.471182 3.22121
rclavicle 3.08613e-014 -1.96797e-014
rhumerus -51.9329 -28.3323 -23.2254
rradius 25.573
rwrist 0.652659
rhand -21.1581 23.8034
rfingers 7.12502
rthumb 5.22167 -6.11231
lclavicle 3.08613e-014 -1.96797e-014
lhumerus -13.6558 10.8398 38.8191
lradius 76.4291
lwrist -21.9987
lhand -22.9236 7.47998
lfingers 7.12502
lthumb 3.51686 37.4307
rfemur 150.026 -189.787 -147.529
rtibia 35.6847
rfoot -50.0081 -32.755
rtoes 21.5939
lfemur -99.7935 27.5337 -56.1311
ltibia 61.2726
lfoot 18.2161 37.3699
ltoes 23.4518
674
root 4.79914 16.0315 -8.50402 30.3445 -45.6254 -5.75215
lowerback -1.52569 -0.46545 -1.35784
upperback -15.3733 -0.851724 3.02732
thorax -16.1678 -0.126293 4.33595
lowerneck -7.43335 -0.470284 -3.9083
upperneck 20.6505 -1.88831 7.82143
head 7.65776 -0.586865 3.06239
rclavicle 4.22417e-015 1.64991e-014
rhumerus -53.0778 -30.0418 -22.3877
rradius 24.7502
rwrist 2.7311
rhand -21.0965 23.6966
rfingers 7.12502
rthumb 5.28117 -6.21764
lclavicle 4.22417e-015 1.64991e-014
lhumerus -15.5026 10.7669 40.4739
lradius 75.8431
lwrist -21.1633
lhand -20.7583 8.23707
lfingers 7.12502
lthumb 5.60774 38.1429
rfemur 150.046 -190.828 -147.833
rtibia 35.7344
rfoot -50.9064 -32.7362
rtoes 22.9343
lfemur -99.8269 27.6072 -56.5164
ltibia 61.3152
lfoot 16.9089 37.5647
ltoes 23.7987
675
root 4.79426 16.0394 -8.47022 30.1269 -45.5697 -5.18016
lowerback -1.86794 -0.398774 -1.49814
upperback -15.2014 -0.780682 2.83217
thorax -15.7264 -0.10149 4.16163
lowerneck -8.4486 -0.70144 -3.62355
upperneck 21.0064 -2.23043 7.71407
head 7.98191 -0.709985 2.95557
rclavicle 4.27387e-014 -1.49089e-014
rhumerus -53.9283 -31.1852 -22.1568
rradius 24.0519
rwrist 3.6955
rhand -20.9485 23.4876
rfingers 7.12502
rthumb 5.42406 -6.42299
lclavicle 4.27387e-014 -1.49089e-014
lhumerus -16.9559 10.5776 42.0385
lradius 74.7967
lwrist -20.3632
lhand -19.1371 9.04874
lfingers 7.12502
lthumb 7.1728 38.9072
rfemur 149.932 -189.843 -148.208
rtibia 35.728
rfoot -50.3983 -32.4707
rtoes 22.122
lfemur -99.5457 27.2432 -57.2582
ltibia 61.4154
lfoot 14.9408 37.4988
ltoes 24.7188
676
root 4.77859 16.0117 -8.44184 30.5863 -45.7125 -5.9439
lowerback -2.2589 -0.37252 -0.781308
upperback -14.7692 -0.679013 2.89637
thorax -14.9256 -0.158706 3.7853
lowerneck -8.75576 -0.647744 -3.68488
upperneck 20.818 -2.15619 7.88328
head 7.97296 -0.657227 3.02728
rclavicle 1.65116e-014 1.39149e-014
rhumerus -55.3309 -34.5922 -20.2836
rradius 22.9151
rwrist 7.52002
rhand -20.4553 24.0003
rfingers 7.12502
rthumb 5.90025 -5.89755
lclavicle 1.65116e-014 1.39149e-014
lhumerus -18.6944 11.0939 42.9672
lradius 73.4164
lwrist -19.9811
lhand -17.7697 9.74287
lfingers 7.12502
lthumb 8.49262 39.5521
rfemur 150.139 -190.319 -147.711
rtibia 35.6739
rfoot -50.1064 -33.3979
rtoes 20.3741
lfemur -99.4823 27.3773 -56.5991
ltibia 61.5988
lfoot 12.8377 37.7226
ltoes 25.0261
677
root 4.7732 15.9852 -8.41369 31.1729 -45.327 -6.8596
lowerback -2.37914 -0.418693 0.286537
upperback -14.4904 -0.661056 3.02168
thorax -14.4998 -0.28114 3.30828
lowerneck -8.43997 -0.567529 -3.7242
upperneck 20.6078 -2.01547 7.81829
head 7.83562 -0.608254 3.02063
rclavicle -1.21942e-013 1.94809e-014
rhumerus -55.6552 -35.6605 -20.7099
rradius 21.9985
rwrist 8.25137
rhand -20.6285 24.024
rfingers 7.12502
rthumb 5.733 -5.87845
lclavicle -1.21942e-013 1.94809e-014
lhumerus -20.5077 11.318 43.9744
lradius 72.0686
lwrist -19.2102
lhand -16.8129 10.7698
lfingers 7.12502
lthumb 9.4159 40.5395
rfemur 150.32 -189.882 -146.854
rtibia 35.6512
rfoot -49.6373 -33.5065
rtoes 19.1138
lfemur -99.0606 27.0696 -55.3497
ltibia 61.6836
lfoot 10.9359 37.8665
ltoes 24.821
678
root 4.75815 15.9753 -8.39288 31.1297 -45.5128 -6.8621
lowerback -2.46967 -0.265288 0.226265
upperback -14.2285 -0.457636 2.8993
thorax -14.1251 -0.185932 3.16871
lowerneck -9.46929 -0.757417 -3.3941
upperneck 20.9717 -2.29529 7.62533
head 8.16063 -0.705388 2.88169
rclavicle 3.3048e-015 -2.13694e-014
rhumerus -55.1744 -34.8093 -23.065
rradius 21.465
rwrist 5.95596
rhand -21.1577 23.5954
rfingers 7.12502
rthumb 5.22207 -6.32027
lclavicle 3.3048e-015 -2.13694e-014
lhumerus -21.7657 11.0827 45.4802
lradius 70.8414
lwrist -18.0964
lhand -16.2043 12.2525
lfingers 7.12502
lthumb 10.0031 41.9948
rfemur 150.438 -190.232 -146.952
rtibia 35.6424
rfoot -49.465 -34.2144
rtoes 18.144
lfemur -98.6389 27.0268 -55.2487
ltibia 61.6402
lfoot 9.55633 37.7072
ltoes 24.2011
